<?xml version="1.0" encoding="UTF-8"?>
<svg id="Capa_2" data-name="Capa 2" xmlns="http://www.w3.org/2000/svg" viewBox="0 0 114.85 103.95">
  <defs>
    <style>
      .cls-1 {
        fill: #a3bda6;
      }
    </style>
  </defs>
  <g id="Capa_1-2" data-name="Capa 1">
    <g>
      <g>
        <path class="cls-1" d="m80.11,40.29h-5.1c1.59.36,3.49.11,5.1,0Z"/>
        <path class="cls-1" d="m113.24,94.96c-2.64-2.72-5.31-5.41-7.97-8.11-.17-.18-.35-.37-.53-.58v-44.94h-9.46c0,2.11,0,4.21,0,6.32-2.19-2.12-4.75-3.87-7.53-5.11-13.06-5.81-29.21,1.1-34.09,14.47-2.49,6.83-2.02,14.41,1.33,20.88,3.17,6.11,8.82,10.71,15.41,12.68,6.77,2.02,14.39.97,20.42-2.66.76-.46,1.49-.95,2.2-1.49.3-.22.45-.43.81-.31.22.07.71.64.86.82.52.62-.08,1.22-.15,1.96-.06.67.13,1.3.5,1.86.93,1.4,2.46,2.59,3.64,3.79,1.34,1.37,2.68,2.73,4.02,4.1.65.67,1.31,1.34,1.96,2,.92.94,1.23,1.36,1.94,1.96,1.02.87,1.53,1.3,2.2,1.35.93.07,1.68-.53,2.58-1.25.49-.39.9-.93,1.8-1.92.53-.58,1.23-1.19,1.5-1.95.57-1.62-.38-2.78-1.43-3.87Zm-35.11-11.31c-9.81.43-17.86-7.52-18.37-16.8-.53-9.58,7.07-18.71,18.09-18.66,8.73.04,16.97,7.1,17.42,16.93.44,9.74-7.15,18.09-17.13,18.53Z"/>
        <polygon class="cls-1" points="84.35 64.53 84.35 64.54 84.35 64.54 84.35 64.53"/>
        <path class="cls-1" d="m85.57,68.84c-.35,0-.7.01-1.05,0-.26,0-.18-.19-.17-.41,0-.34.01-.68.01-1.02.32,0,.64,0,.95,0,.27,0,.6.04.84-.1.35-.21.46-.7.21-1.02-.35-.46-1.14-.31-1.64-.31-.08,0-.3.04-.35-.03-.05-.06,0-.32,0-.4,0-.34,0-.67,0-1.01-1.04.03-2.09,0-3.13,0-3.72,0-7.44,0-11.16,0-.02.41,0,.83,0,1.24,0,.2-.03.19-.23.19-.2,0-.4,0-.61,0-.33,0-.73-.05-1.01.16-.23.17-.34.46-.26.73.08.3.31.5.62.53.4.03.81.01,1.2.01.2,0,.27-.04.28.18,0,.19,0,.39.01.58,0,.13,0,.26.01.39,0,.06.03.19,0,.24-.06.1-.28.05-.38.05-.54,0-1.43-.18-1.72.42-.24.51.2.97.69,1,.38.02.77,0,1.15,0,.13,0,.42-.06.53,0,.1.05.11.24.15.33.21.57.5,1.13.85,1.63,1.44,2.09,4.08,3.3,6.6,3.01,2.64-.3,4.96-2.08,5.91-4.57.04-.11.07-.34.18-.4.12-.07.42,0,.56,0,.36,0,.73.01,1.09,0,.56-.02,1.05-.6.65-1.12-.2-.26-.48-.3-.79-.3Zm-7.64,3.14c0,.18,0,.35-.01.53-.02.3-.35.65-.74.63-.34-.02-.65-.31-.68-.67-.01-.15,0-.3,0-.45,0-.83,0-1.65,0-2.48,0-.93,0-1.87,0-2.8,0-.29.11-.51.35-.66.43-.26.98,0,1.07.48.01.08.02.16.02.24,0,1.73,0,3.46,0,5.18Z"/>
        <path class="cls-1" d="m71.96,58.87c.05.05.05.08,0,.13-.12.13-.23.25-.34.39-.77.97-1.27,2.06-1.46,3.29-.02.15-.04.29-.06.44h14.21c-.17-1.61-.81-3-1.91-4.18.15-.15.29-.29.42-.42.43-.43.85-.86,1.28-1.29.11-.12.21-.25.24-.42.08-.48-.36-.91-.83-.81-.19.04-.34.16-.47.29-.55.55-1.1,1.1-1.65,1.65-.05.05-.08.05-.14.01-.51-.35-1.05-.63-1.64-.84-.62-.23-1.27-.35-1.93-.41-.41-.04-.82-.02-1.22.03-.52.06-1.03.17-1.53.34-.63.21-1.21.51-1.76.88-.06.04-.09.04-.14-.01-.55-.55-1.1-1.1-1.66-1.65-.08-.08-.16-.15-.26-.21-.23-.14-.47-.14-.7,0-.24.16-.36.38-.34.67.01.2.12.34.25.47.54.55,1.09,1.1,1.63,1.64Z"/>
        <polygon class="cls-1" points="84.35 64.53 84.35 64.54 84.35 64.53 84.35 64.53"/>
        <path class="cls-1" d="m85.87,64.52c.33-.03.59-.28.62-.62.04-.37-.23-.7-.6-.76-.25-.04-.51-.02-.76-.02-.25,0-.53-.04-.77.01,0,.46.02.93-.01,1.39.5,0,1.02.03,1.52-.01Z"/>
        <path class="cls-1" d="m68.54,64.52c.24,0,.48,0,.72,0v.02c.24,0,.48,0,.72,0,.06,0,.08-.02.08-.08,0-.42,0-.85,0-1.27,0-.05-.02-.07-.07-.07-.47,0-.93,0-1.39.02-.4.01-.74.35-.66.82.05.29.31.55.6.56Z"/>
      </g>
      <path class="cls-1" d="m63.7,4.81C60.33-.31,53.93-.83,48.48.88c-5.47,1.72-9.61,6.33-12.32,11.21-1.53,2.76-2.68,5.76-3.52,8.79-.9,3.28-.94,6.38-1.13,9.73l-.18.04c-2.73-6.01-5.47-12.02-8.13-18.06-1.01-2.29-2.48-3.42-1.39-5.95.97-2.27,2.97-2.57,5-3.4V1.06H0v2.18h.13c1.14,3.38,3.01,5.27,4.51,8.5,1.65,3.54,3.3,7.09,4.95,10.63,3.42,7.34,6.84,14.69,10.26,22.03,1.51,3.25,3.02,6.49,4.53,9.74.75,1.62,1.51,3.25,2.26,4.87.47,1.02.91,2.53,1.5,3.71.43.85.68,1.78.73,2.73v18.65h9.4v-20.71c0-.97.25-1.93.74-2.77,0,0,0,0,0-.01,0,0,1.38-2.21,2.8-4.47,7.29-11.64,14.93-23.14,21.7-35.09,2.9-5.12,3.54-11.14.18-16.24Zm-11.62,24.13c-.44,9.19-4.55,16.37-9.44,23.88-.14.22-.31.42-.55.75-1.98-4.05-3.77-8.2-5.61-12.32-1.82-4.09-3.84-8.02-3.86-12.61-.01-3.74.85-7.56,2.64-10.86,1.56-2.86,4.25-6.77,7.81-7.09,8.46-.76,9.27,12.68,9,18.25Z"/>
    </g>
  </g>
</svg>